<?xml version="1.0" encoding="UTF-8"?>
<svg version="1.1" xmlns="http://www.w3.org/2000/svg" width="2000" height="2103">
<path d="M0 0 C1.78919748 -0.00104648 3.57839475 -0.00253018 5.36759156 -0.00440437 C10.242266 -0.00826345 15.11692038 -0.00598705 19.99159446 -0.00262641 C25.31088139 -0.00007345 30.63016541 -0.00335603 35.94945192 -0.00586975 C45.25845617 -0.00947095 54.56745461 -0.00937833 63.87645912 -0.00682259 C77.71953585 -0.00303241 91.5626077 -0.00497784 105.4056844 -0.00803089 C128.70056419 -0.01298686 151.99544134 -0.01317839 175.29032135 -0.01045418 C175.99865537 -0.01037138 176.70698939 -0.01028859 177.43678807 -0.01020328 C178.50100543 -0.01007889 178.50100543 -0.01007889 179.58672212 -0.00995198 C201.22592873 -0.00742598 222.8651344 -0.00677871 244.50434113 -0.00797462 C245.95498458 -0.0080521 247.40562803 -0.00812926 248.85627148 -0.00820609 C254.68621863 -0.00851658 260.51616578 -0.00883525 266.34611292 -0.00916586 C282.64190527 -0.01008274 298.93769762 -0.01065343 315.23348999 -0.010952 C315.97548101 -0.01096564 316.71747203 -0.01097929 317.48194763 -0.01099335 C341.11502517 -0.01140245 364.74810238 -0.01027662 388.38117981 -0.00810242 C389.5304795 -0.00799704 389.5304795 -0.00799704 390.70299737 -0.00788954 C403.14455826 -0.00674468 415.58611915 -0.00552517 428.02768003 -0.00429937 C477.36832558 0.00055674 526.70896842 0.00033134 576.04961395 -0.00452995 C588.48499044 -0.0057512 600.92036692 -0.00696228 613.35574341 -0.00810242 C614.12149793 -0.00817287 614.88725246 -0.00824331 615.67621167 -0.0083159 C639.28528557 -0.01047299 662.89435924 -0.01138618 686.50343323 -0.010952 C687.61559619 -0.01093162 687.61559619 -0.01093162 688.75022709 -0.01091083 C705.02809916 -0.01059831 721.3059712 -0.0099646 737.58384325 -0.00904149 C743.40849029 -0.00871237 749.23313733 -0.00839929 755.05778437 -0.00809078 C756.50672417 -0.00801339 757.95566396 -0.00793466 759.40460376 -0.00785459 C781.03644795 -0.00666236 802.66829108 -0.00767478 824.30013514 -0.01020328 C825.36263617 -0.01032748 825.36263617 -0.01032748 826.44660187 -0.01045418 C827.15362165 -0.01053686 827.86064143 -0.01061954 828.58908605 -0.01070473 C852.46576225 -0.01346645 876.34243517 -0.01243937 900.21911108 -0.00717343 C913.97674641 -0.0042392 927.73437527 -0.00404252 941.49201042 -0.00781961 C950.68728278 -0.01006542 959.88254995 -0.00866021 969.07782154 -0.00431484 C974.31298894 -0.00194138 979.54814349 -0.00111166 984.78331047 -0.00472082 C989.5567664 -0.00797801 994.33019824 -0.00654036 999.10365245 -0.00154016 C1000.80915071 -0.00054264 1002.51465102 -0.00117325 1004.22014763 -0.0037461 C1019.71624446 -0.02544225 1035.46044831 0.01524549 1050.80596161 2.37584114 C1051.66608856 2.50587532 1052.52621552 2.6359095 1053.41240692 2.76988411 C1077.89728386 6.65488912 1101.60050989 14.18397818 1123.36846161 26.12584114 C1124.71335591 26.84228324 1126.05841187 27.55842195 1127.40361786 28.27427864 C1145.61973433 38.10768057 1161.33342248 50.97776116 1176.36846161 65.12584114 C1177.35652802 66.05009895 1177.35652802 66.05009895 1178.36455536 66.99302864 C1183.51379576 71.96388889 1187.92815335 77.52466797 1192.36846161 83.12584114 C1192.78031708 83.63953255 1193.19217255 84.15322395 1193.61650848 84.68248177 C1199.85616324 92.47964665 1205.32154105 100.48955862 1210.36846161 109.12584114 C1211.08249122 110.29170473 1211.79735619 111.45705706 1212.51299286 112.62193489 C1229.2519705 140.44154031 1240.59148784 176.51367993 1240.49726278 209.18121612 C1240.49903779 209.95624743 1240.5008128 210.73127873 1240.50264159 211.52979584 C1240.50736752 214.12335154 1240.505012 216.7168513 1240.50268269 219.31040955 C1240.50463657 221.19806916 1240.50702578 223.08572837 1240.50981066 224.97338694 C1240.51620931 230.17742818 1240.51637238 235.38145397 1240.51553325 240.58549838 C1240.51570277 246.24105769 1240.52160925 251.89661147 1240.52677411 257.55216801 C1240.53610252 268.77716137 1240.54002257 280.00215078 1240.54229307 291.22714753 C1240.54434984 300.56312383 1240.54873272 309.89909679 1240.55474281 319.23507118 C1240.55517343 319.9072828 1240.55560404 320.57949441 1240.5560477 321.27207608 C1240.55780609 324.00992608 1240.55957573 326.74777607 1240.56136072 329.48562605 C1240.58295427 362.67098158 1240.59383916 395.85633793 1240.60283696 429.04169889 C1240.60577172 439.80578163 1240.60914172 450.56986418 1240.61280417 461.3339467 C1240.61306247 462.09352163 1240.61332076 462.85309656 1240.61358687 463.6356889 C1240.61463313 466.70881652 1240.61568156 469.78194414 1240.6167327 472.85507176 C1240.63469877 525.42828123 1240.65007603 578.00149103 1240.65749173 630.57470314 C1240.65807569 634.70395435 1240.65867296 638.83320556 1240.65926934 642.96245677 C1240.65938746 643.78155682 1240.65950558 644.60065687 1240.65962728 645.44457813 C1240.66082465 653.74300233 1240.66203341 662.04142653 1240.66325982 670.33985073 C1240.66350505 672.00368972 1240.66374891 673.6675287 1240.66399138 675.33136769 C1240.67177722 728.74126089 1240.69415122 782.15113209 1240.72666781 835.56101567 C1240.75002503 873.93917097 1240.77157085 912.31732188 1240.77867413 950.69548416 C1240.77882115 951.48537791 1240.77896817 952.27527167 1240.77911964 953.08910159 C1240.78230506 970.43265296 1240.78435554 987.77620428 1240.78534719 1005.11975591 C1240.78576191 1012.09891776 1240.7863168 1019.0780796 1240.7869091 1026.05724144 C1240.78700011 1027.20294319 1240.78700011 1027.20294319 1240.78709295 1028.37179043 C1240.78910607 1052.94011895 1240.80332345 1077.50842144 1240.82385411 1102.0767409 C1240.84447349 1126.83919682 1240.85230928 1151.60162272 1240.84277634 1176.36408638 C1240.84145806 1179.79318821 1240.84027996 1183.22229007 1240.83918571 1186.65139198 C1240.83896587 1187.32353249 1240.83874602 1187.99567299 1240.83851951 1188.68818139 C1240.83522856 1199.93317371 1240.84772307 1211.1781148 1240.86451499 1222.42309491 C1240.87805 1232.22983 1240.87692219 1242.03649424 1240.86411303 1251.84323007 C1240.85723443 1257.4229824 1240.8564848 1263.00253776 1240.87367312 1268.58227228 C1241.08186154 1340.67831898 1220.27478118 1398.89298396 1169.06610945 1450.54465587 C1164.54786503 1455.08267011 1160.02116258 1459.61215186 1155.49085326 1464.13811841 C1152.61707725 1467.01024797 1149.74620883 1469.88528159 1146.87495184 1472.759929 C1141.85082224 1477.78919245 1136.82484856 1482.816607 1131.79763603 1487.8427887 C1124.32190979 1495.31698581 1116.84903834 1502.79403242 1109.37669148 1510.27160788 C1095.25413768 1524.40381791 1081.12817033 1538.53261258 1067.00107443 1552.66028198 C1056.09300594 1563.5688104 1045.18573801 1574.47813867 1034.27902985 1585.38802719 C1031.13714753 1588.53080706 1027.99526135 1591.67358307 1024.853374 1594.81635791 C1024.07225976 1595.59769321 1023.29114551 1596.3790285 1022.48636114 1597.18404062 C1000.52537332 1619.15117972 978.56328476 1641.11721783 956.59899902 1663.08105946 C955.771418 1663.9086249 954.94383697 1664.73619035 954.09117773 1665.58883354 C949.89682616 1669.783102 945.70246663 1673.97736249 941.50810534 1678.17162123 C940.25861997 1679.42107667 940.25861997 1679.42107667 938.98389248 1680.69577365 C937.29938656 1682.38023913 935.61487996 1684.06470393 933.93037268 1685.74916805 C907.70954716 1711.96938052 881.49278816 1738.19365304 855.27910614 1764.42100716 C825.81776053 1793.89771246 796.35304052 1823.37103913 766.88354921 1852.83960086 C763.74165234 1855.98142311 760.59976842 1859.12325831 757.45789337 1862.26510239 C756.68429911 1863.03868499 755.91070485 1863.8122676 755.11366833 1864.60929211 C742.666258 1877.05667167 730.22205828 1889.50725624 717.77897091 1901.95895711 C705.27676155 1914.46964196 692.77081439 1926.9765808 680.26107872 1939.47973999 C672.83051021 1946.90661271 665.40271879 1954.33623758 657.97890183 1961.76985921 C653.01776822 1966.73699099 648.05299864 1971.70046873 643.08527795 1976.6610126 C640.25644804 1979.48595979 637.42919821 1982.31243877 634.60636681 1985.14338108 C632.03339717 1987.72367872 629.45578611 1990.29924681 626.87454992 1992.87127411 C625.52047992 1994.22283745 624.17126554 1995.57926023 622.82231432 1996.93593249 C569.83393734 2049.61956016 503.01315754 2061.30754028 431.26095168 2061.25430869 C426.31124214 2061.2517531 421.3615357 2061.25503934 416.41182661 2061.25755203 C407.75171367 2061.26115135 399.09160698 2061.26106178 390.43149376 2061.25850487 C377.55330727 2061.25471295 364.67512602 2061.25666102 351.79693957 2061.25971317 C328.79275836 2061.26497248 305.78857993 2061.26452509 282.78439845 2061.26163426 C262.65282753 2061.2591078 242.52125763 2061.25846121 222.38968658 2061.25965691 C221.03986835 2061.25973439 219.69005012 2061.25981154 218.34023189 2061.25988838 C212.91542495 2061.26019886 207.49061801 2061.26051753 202.06581107 2061.26084814 C186.90266413 2061.261765 171.7395172 2061.26233571 156.57637024 2061.26263428 C155.88596397 2061.26264792 155.1955577 2061.26266157 154.48423003 2061.26267563 C132.49570195 2061.26308471 110.50717421 2061.26195905 88.51864624 2061.2597847 C87.80581254 2061.25971445 87.09297884 2061.2596442 86.35854412 2061.25957182 C74.78370017 2061.25842697 63.20885622 2061.25720746 51.63401228 2061.25598165 C5.73120405 2061.25112558 -40.17160127 2061.25135097 -86.07440948 2061.25621223 C-97.64351399 2061.2574335 -109.2126185 2061.25864458 -120.78172302 2061.2597847 C-121.49414332 2061.25985515 -122.20656361 2061.25992559 -122.9405724 2061.25999818 C-144.90686399 2061.26215542 -166.87315533 2061.26306844 -188.83944702 2061.26263428 C-189.52934177 2061.26262069 -190.21923653 2061.26260711 -190.93003718 2061.26259311 C-206.07653767 2061.26228059 -221.22303813 2061.26164686 -236.36953859 2061.26072377 C-241.78940023 2061.26039465 -247.20926187 2061.26008157 -252.62912351 2061.25977306 C-253.97735649 2061.25969567 -255.32558946 2061.25961694 -256.67382243 2061.25953687 C-277.46381044 2061.25830545 -298.25379724 2061.25952388 -319.0437851 2061.26213646 C-341.92184557 2061.26499713 -364.79990283 2061.26427785 -387.6779629 2061.25885572 C-400.47578729 2061.25592251 -413.27360472 2061.25572331 -426.07142892 2061.25950189 C-434.62691831 2061.26174895 -443.18240213 2061.26034026 -451.7378907 2061.25599712 C-456.60764343 2061.25362537 -461.47738237 2061.25279033 -466.34713465 2061.2564031 C-514.36576081 2061.2894028 -514.36576081 2061.2894028 -530.06903839 2058.87584114 C-530.92553986 2058.74725716 -531.78204132 2058.61867317 -532.66449738 2058.4861927 C-549.54383018 2055.8209539 -565.70416014 2051.28284258 -581.63153839 2045.12584114 C-582.32022003 2044.86077766 -583.00890167 2044.59571419 -583.71845245 2044.32261848 C-631.49700694 2025.5617139 -670.45681329 1987.82534307 -694.63153839 1943.12584114 C-695.17584503 1942.14381721 -695.17584503 1942.14381721 -695.73114777 1941.14195442 C-706.02480597 1922.4810778 -712.41422559 1901.93618993 -716.63153839 1881.12584114 C-716.77930928 1880.40058115 -716.92708017 1879.67532116 -717.07932897 1878.9280836 C-720.51578431 1861.20814344 -720.05873707 1843.2641664 -720.01694105 1825.29983466 C-720.00926337 1820.55613221 -720.01913719 1815.81245864 -720.02667105 1811.0687604 C-720.03746126 1802.77186911 -720.03720517 1794.47503647 -720.02952957 1786.17814255 C-720.01814659 1773.84003298 -720.02400174 1761.50197256 -720.03315449 1749.16386329 C-720.04892685 1727.12352469 -720.04759245 1705.08321223 -720.03891776 1683.04287116 C-720.03136377 1663.75471387 -720.0294044 1644.46656614 -720.03298569 1625.17840767 C-720.03321484 1623.89775536 -720.033444 1622.61710304 -720.0336801 1621.29764308 C-720.03461415 1616.09873658 -720.03556935 1610.89983009 -720.03655939 1605.7009236 C-720.03929363 1591.16946971 -720.04102207 1576.63801579 -720.0419178 1562.10656166 C-720.04195874 1561.44493387 -720.04199968 1560.78330608 -720.04204185 1560.10162896 C-720.04326897 1539.03167242 -720.03989272 1517.96171919 -720.03336906 1496.89176369 C-720.03315832 1496.20877295 -720.03294757 1495.52578221 -720.03273044 1494.82209479 C-720.02929594 1483.73204251 -720.02563739 1472.6419903 -720.02195992 1461.55193809 C-720.00739186 1417.57249426 -720.00806804 1373.59307783 -720.02265167 1329.61363411 C-720.0263155 1318.5290623 -720.02994875 1307.44449048 -720.03336906 1296.35991859 C-720.03358041 1295.67732283 -720.03379175 1294.99472707 -720.0340095 1294.29144659 C-720.04048185 1273.24267083 -720.04322017 1252.19389735 -720.0419178 1231.14512062 C-720.04187705 1230.48398387 -720.0418363 1229.82284712 -720.04179431 1229.14167592 C-720.04081464 1213.97484107 -720.03870312 1198.80800653 -720.03581488 1183.64117193 C-720.03485276 1178.45187283 -720.03391424 1173.26257372 -720.03298569 1168.07327461 C-720.03274846 1166.79558651 -720.03251122 1165.5178984 -720.0322668 1164.20149248 C-720.02885792 1144.92796506 -720.03283862 1125.65444827 -720.04042435 1106.38092232 C-720.0490089 1084.46066906 -720.04684316 1062.54044597 -720.03058212 1040.62019646 C-720.02178674 1028.3602292 -720.02117874 1016.10032731 -720.03252064 1003.84036178 C-720.03926695 995.64214738 -720.03502658 987.44398519 -720.02200633 979.2457785 C-720.01489809 974.58089318 -720.01237092 969.91613734 -720.02322428 965.25125629 C-720.15448391 904.26647604 -701.94588512 857.67837058 -668.21747589 807.46568489 C-662.27588466 798.62013962 -656.41882662 789.71976621 -650.56903839 780.81334114 C-649.51414461 779.20801027 -648.45921267 777.60270448 -647.40424347 775.99742317 C-645.79148461 773.54326701 -644.17880074 771.08906175 -642.5663681 768.63469124 C-636.99483244 760.15451031 -631.41372108 751.68064519 -625.83194733 743.207201 C-613.45549293 724.41873079 -601.08846179 705.62407009 -588.72431183 686.8275013 C-584.04861943 679.71936243 -579.37230912 672.6116301 -574.69605255 665.50386238 C-572.09118987 661.54453817 -569.48636607 657.58518838 -566.88153839 653.62584114 C-565.83987191 652.04250768 -564.79820524 650.45917435 -563.75653839 648.87584114 C-563.24091339 648.09209114 -562.72528839 647.30834114 -562.19403839 646.50084114 C-510.63153839 568.12584114 -459.06903839 489.75084114 -305.94400787 257.00079536 C-304.90244218 255.41761511 -303.86087724 253.83443437 -302.81931305 252.25125313 C-300.21360755 248.29057364 -297.60788903 244.32990273 -295.00214386 240.36924934 C-290.3329956 233.27225876 -285.66393384 226.17521135 -280.99536896 219.07783699 C-268.58757207 200.21493393 -256.17487398 181.35527166 -243.75531769 162.50010872 C-238.07424 153.87478423 -232.39548227 145.24794516 -226.72138214 136.61802864 C-226.158797 135.76247383 -225.59621185 134.90691902 -225.01657867 134.02543831 C-222.35250022 129.97399724 -219.68884637 125.92227851 -217.02606964 121.86998177 C-214.23199722 117.61922269 -211.43400277 113.37107228 -208.63153839 109.12584114 C-207.94645706 108.08796959 -207.94645706 108.08796959 -207.24753571 107.02913094 C-205.90903681 105.00387666 -204.56769928 102.98053527 -203.22528839 100.95787239 C-202.83365005 100.36521584 -202.44201172 99.77255928 -202.03850555 99.16194344 C-195.52440259 89.37059354 -188.22788006 80.43273871 -180.17450714 71.87974739 C-178.38514031 69.94195382 -176.69262389 68.0135693 -175.02606964 65.97740364 C-171.88193339 62.23316309 -168.35282799 59.27742191 -164.63153839 56.12584114 C-163.71630402 55.31115364 -162.80106964 54.49646614 -161.85810089 53.65709114 C-130.4749836 25.95061467 -90.11079371 8.43936768 -48.88153839 2.31334114 C-48.14048859 2.20151497 -47.39943878 2.0896888 -46.63593292 1.97447395 C-31.23164546 -0.07158672 -15.51294872 -0.02340226 0 0 Z " fill="#000000" transform="translate(739.6315383911133,20.87415885925293)"/>
<path d="M0 0 C111.21 0 222.42 0 337 0 C338.65 5.94 340.3 11.88 342 18 C343.2649787 22.07521571 344.54501866 26.13443591 345.875 30.1875 C348.86644922 39.41795271 351.75592714 48.67307871 354.5637207 57.9609375 C356.20183751 63.37899825 357.86186236 68.78874852 359.5625 74.1875 C361.69200658 80.96701113 363.73728036 87.76970899 365.76977539 94.57885742 C367.31061387 99.73095889 368.8841436 104.87095904 370.5 110 C372.65516957 116.84092534 374.71974326 123.70715943 376.76953125 130.58032227 C378.30374978 135.71356177 379.88109472 140.8304178 381.5 145.9375 C383.38906564 151.90610348 385.11991632 157.91048411 386.8125 163.9375 C389.30758654 172.80665088 392.05016146 181.58108421 394.93286133 190.33178711 C398.24852756 200.49186827 401.05475645 210.69164759 404 221 C404.33 148.07 404.66 75.14 405 0 C516.54 0 628.08 0 743 0 C743 250.14 743 500.28 743 758 C631.46 758 519.92 758 405 758 C400.41544118 740.80790441 400.41544118 740.80790441 398.5625 733.75 C398.13672571 732.1302065 397.71094425 730.51041489 397.28515625 728.890625 C397.07262207 728.08173828 396.86008789 727.27285156 396.64111328 726.43945312 C395.80249883 723.24850278 394.96282842 720.05783086 394.12304688 716.8671875 C393.49726722 714.48961716 392.87168091 712.11199599 392.24609375 709.734375 C391.42645352 706.61961416 390.60609781 703.5050431 389.78515625 700.390625 C387.25341873 690.78300571 384.73859922 681.171086 382.23291016 671.55664062 C379.83704432 662.36710257 377.42089394 653.18297088 375 644 C372.06217792 632.85620962 369.13931945 621.70866812 366.23291016 610.55664062 C363.83704432 601.36710257 361.42089394 592.18297088 359 583 C355.31073445 569.00582307 351.65314596 555.00372618 348 541 C347.67 612.94 347.34 684.88 347 759 C232.49 759 117.98 759 0 759 C0 508.53 0 258.06 0 0 Z " fill="#FEFEFE" transform="translate(906,268)"/>
<path d="M0 0 C2.12508244 3.18762365 2.5020163 5.26512223 3 9 C2.34 9 1.68 9 1 9 C1 78.63 1 148.26 1 220 C0.67 220 0.34 220 0 220 C0 147.4 0 74.8 0 0 Z " fill="#2E2E2E" transform="translate(1253,806)"/>
</svg>
